<svg width="38" height="35" viewBox="0 0 38 35" fill="none" xmlns="http://www.w3.org/2000/svg"><path d="M35.994 14.583H2.006C.898 14.583 0 15.823 0 17.354v.292c0 1.53.898 2.77 2.006 2.77h33.988c1.108 0 2.006-1.24 2.006-2.77v-.292c0-1.53-.898-2.77-2.006-2.77zM35.994 29.167H2.006C.898 29.167 0 30.407 0 31.937v.292C0 33.76.898 35 2.006 35h33.988C37.102 35 38 33.76 38 32.23v-.292c0-1.53-.898-2.771-2.006-2.771zM35.994 0H2.006C.898 0 0 1.24 0 2.77v.292c0 1.53.898 2.771 2.006 2.771h33.988c1.108 0 2.006-1.24 2.006-2.77V2.77C38 1.24 37.102 0 35.994 0z" fill="#fff"/></svg>